<svg id="Layer_1" data-name="Layer 1" xmlns="http://www.w3.org/2000/svg" viewBox="0 0 86.62 16.08"><defs><style>.cls-1{fill:#5dbf90;}.cls-2{font-size:14.68px;fill:#363f49;font-family:Calibre-Semibold, Calibre;font-weight:700;}.cls-3{letter-spacing:-0.01em;}.cls-4{letter-spacing:0em;}</style></defs><title>greenlogo</title><path id="_Path_" data-name="&lt;Path&gt;" class="cls-1" d="M13.18,1.7l-.05,0-.26-.15A4.87,4.87,0,0,0,9.44,1h0A4.84,4.84,0,0,0,6.79,2.52l-.14,0A4.89,4.89,0,0,0,.5,4.33l0,.05A4.73,4.73,0,0,0,0,5.33L.7,8.66l.39,1.87,0,0h0l.08.05h0l.25.23.81.54.19.1h0l.15.11.75.52.12.08,0,0,0,0h0l.35.25.07.05,1.28.89.08.05.22.15.22.15.17.12,2,1.36.17.12.85.55h0a.85.85,0,0,0,1.18-.25l.56-.85L12,12.64l.11-.17.14-.23.14-.23.86-1.41,0-.08.23-.37h0l0,0,0,0,.08-.13L14.21,9h0l.13-.17.39-.62A3,3,0,0,0,15,7.71h0l0-.08h0l0,0L14.52,4.9,14,2.37A4.73,4.73,0,0,0,13.18,1.7Z"/><text class="cls-2" transform="translate(17.29 11.85)"><tspan class="cls-3">r</tspan><tspan x="4.99" y="0">et</tspan><tspan class="cls-3" x="16.94" y="0">r</tspan><tspan x="21.94" y="0">ol</tspan><tspan class="cls-4" x="32.52" y="0">ec</tspan><tspan x="46.26" y="0">tion</tspan></text></svg>